<mxfile host="app.diagrams.net" modified="2022-12-30T15:42:33.865Z" agent="5.0 (Windows NT 10.0; Win64; x64) AppleWebKit/537.36 (KHTML, like Gecko) Chrome/108.0.0.0 Safari/537.36" etag="lCFQRNLCjYYJ6wC67vEL" version="20.7.4" type="github">
  <diagram id="Tq5u3TZ-hP6wZukJtNCt" name="Page-1">
    <mxGraphModel dx="2100" dy="1082" grid="1" gridSize="10" guides="1" tooltips="1" connect="1" arrows="1" fold="1" page="1" pageScale="1" pageWidth="827" pageHeight="1169" math="0" shadow="0">
      <root>
        <mxCell id="0" />
        <mxCell id="1" parent="0" />
        <mxCell id="yXLgln3FG9nKV5-Q6QMO-46" value="" style="edgeStyle=orthogonalEdgeStyle;rounded=0;orthogonalLoop=1;jettySize=auto;html=1;fontSize=25;" parent="1" source="yXLgln3FG9nKV5-Q6QMO-31" target="yXLgln3FG9nKV5-Q6QMO-34" edge="1">
          <mxGeometry relative="1" as="geometry" />
        </mxCell>
        <mxCell id="yXLgln3FG9nKV5-Q6QMO-31" value="" style="rounded=1;whiteSpace=wrap;html=1;fillStyle=dashed;dashed=1;" parent="1" vertex="1">
          <mxGeometry x="125" y="542" width="1410" height="220" as="geometry" />
        </mxCell>
        <mxCell id="yXLgln3FG9nKV5-Q6QMO-7" value="" style="edgeStyle=orthogonalEdgeStyle;rounded=0;orthogonalLoop=1;jettySize=auto;html=1;" parent="1" source="yXLgln3FG9nKV5-Q6QMO-1" target="yXLgln3FG9nKV5-Q6QMO-2" edge="1">
          <mxGeometry relative="1" as="geometry">
            <Array as="points">
              <mxPoint x="830" y="160" />
              <mxPoint x="560" y="160" />
            </Array>
          </mxGeometry>
        </mxCell>
        <mxCell id="yXLgln3FG9nKV5-Q6QMO-1" value="&lt;p style=&quot;margin-top: 0pt; margin-bottom: 0pt; direction: ltr; unicode-bidi: embed; vertical-align: baseline;&quot;&gt;&lt;span style=&quot;font-size: 20pt; font-family: 微软雅黑; font-weight: bold;&quot;&gt;基于多孔介质力学的固井水泥环密封完整性分析软件编制&lt;/span&gt;&lt;/p&gt;" style="rounded=1;whiteSpace=wrap;html=1;fillColor=#dae8fc;strokeColor=#6c8ebf;arcSize=50;" parent="1" vertex="1">
          <mxGeometry x="470" y="60" width="720" height="60" as="geometry" />
        </mxCell>
        <mxCell id="yXLgln3FG9nKV5-Q6QMO-28" value="" style="edgeStyle=orthogonalEdgeStyle;rounded=0;orthogonalLoop=1;jettySize=auto;html=1;" parent="1" source="yXLgln3FG9nKV5-Q6QMO-2" target="yXLgln3FG9nKV5-Q6QMO-12" edge="1">
          <mxGeometry relative="1" as="geometry" />
        </mxCell>
        <mxCell id="yXLgln3FG9nKV5-Q6QMO-2" value="&lt;p style=&quot;margin-top: 0pt; margin-bottom: 0pt; direction: ltr; unicode-bidi: embed; vertical-align: baseline;&quot;&gt;&lt;span style=&quot;font-size: 20pt; font-family: 微软雅黑; font-weight: bold;&quot;&gt;一维解析模型&lt;/span&gt;&lt;/p&gt;" style="rounded=1;whiteSpace=wrap;html=1;fillColor=#d5e8d4;strokeColor=#82b366;" parent="1" vertex="1">
          <mxGeometry x="400" y="190" width="180" height="60" as="geometry" />
        </mxCell>
        <mxCell id="yXLgln3FG9nKV5-Q6QMO-3" value="&lt;p style=&quot;margin-top: 0pt; margin-bottom: 0pt; direction: ltr; unicode-bidi: embed; vertical-align: baseline;&quot;&gt;&lt;span style=&quot;font-size: 20pt; font-family: 微软雅黑; font-weight: bold;&quot;&gt;二维解析模型&lt;/span&gt;&lt;/p&gt;" style="rounded=1;whiteSpace=wrap;html=1;fillColor=#d5e8d4;strokeColor=#82b366;" parent="1" vertex="1">
          <mxGeometry x="740" y="200" width="180" height="60" as="geometry" />
        </mxCell>
        <mxCell id="yXLgln3FG9nKV5-Q6QMO-4" value="&lt;p style=&quot;margin-top: 0pt; margin-bottom: 0pt; direction: ltr; unicode-bidi: embed; vertical-align: baseline;&quot;&gt;&lt;span style=&quot;font-size: 20pt; font-family: 微软雅黑; font-weight: bold;&quot;&gt;三维有限元模型&lt;/span&gt;&lt;/p&gt;" style="rounded=1;whiteSpace=wrap;html=1;fillColor=#d5e8d4;strokeColor=#82b366;" parent="1" vertex="1">
          <mxGeometry x="1090" y="200" width="250" height="60" as="geometry" />
        </mxCell>
        <mxCell id="yXLgln3FG9nKV5-Q6QMO-10" value="" style="edgeStyle=orthogonalEdgeStyle;rounded=0;orthogonalLoop=1;jettySize=auto;html=1;entryX=0.5;entryY=0;entryDx=0;entryDy=0;exitX=0.5;exitY=1;exitDx=0;exitDy=0;" parent="1" source="yXLgln3FG9nKV5-Q6QMO-1" target="yXLgln3FG9nKV5-Q6QMO-3" edge="1">
          <mxGeometry relative="1" as="geometry">
            <mxPoint x="382.5" y="150" as="sourcePoint" />
            <mxPoint x="22.5" y="200" as="targetPoint" />
          </mxGeometry>
        </mxCell>
        <mxCell id="yXLgln3FG9nKV5-Q6QMO-11" value="" style="edgeStyle=orthogonalEdgeStyle;rounded=0;orthogonalLoop=1;jettySize=auto;html=1;entryX=0.5;entryY=0;entryDx=0;entryDy=0;exitX=0.5;exitY=1;exitDx=0;exitDy=0;" parent="1" source="yXLgln3FG9nKV5-Q6QMO-1" target="yXLgln3FG9nKV5-Q6QMO-4" edge="1">
          <mxGeometry relative="1" as="geometry">
            <mxPoint x="382.5" y="150" as="sourcePoint" />
            <mxPoint x="326.5" y="200" as="targetPoint" />
          </mxGeometry>
        </mxCell>
        <mxCell id="yXLgln3FG9nKV5-Q6QMO-47" value="" style="edgeStyle=orthogonalEdgeStyle;rounded=0;orthogonalLoop=1;jettySize=auto;html=1;fontSize=25;entryX=0.5;entryY=0;entryDx=0;entryDy=0;" parent="1" source="yXLgln3FG9nKV5-Q6QMO-12" target="yXLgln3FG9nKV5-Q6QMO-31" edge="1">
          <mxGeometry relative="1" as="geometry">
            <Array as="points">
              <mxPoint x="390" y="500" />
              <mxPoint x="830" y="500" />
            </Array>
          </mxGeometry>
        </mxCell>
        <mxCell id="yXLgln3FG9nKV5-Q6QMO-12" value="&lt;p style=&quot;margin-top: 0pt; margin-bottom: 0pt; direction: ltr; unicode-bidi: embed; vertical-align: baseline;&quot;&gt;&lt;span style=&quot;font-size: 20pt; font-family: 微软雅黑; font-weight: bold;&quot;&gt;一维解析模型程序研制&lt;/span&gt;&lt;/p&gt;" style="rounded=0;whiteSpace=wrap;html=1;fillColor=#d5e8d4;strokeColor=#82b366;" parent="1" vertex="1">
          <mxGeometry x="330" y="330" width="120" height="160" as="geometry" />
        </mxCell>
        <mxCell id="yXLgln3FG9nKV5-Q6QMO-48" value="" style="edgeStyle=orthogonalEdgeStyle;rounded=0;orthogonalLoop=1;jettySize=auto;html=1;fontSize=25;" parent="1" source="yXLgln3FG9nKV5-Q6QMO-13" target="yXLgln3FG9nKV5-Q6QMO-31" edge="1">
          <mxGeometry relative="1" as="geometry">
            <Array as="points">
              <mxPoint x="560" y="500" />
              <mxPoint x="830" y="500" />
            </Array>
          </mxGeometry>
        </mxCell>
        <mxCell id="yXLgln3FG9nKV5-Q6QMO-13" value="&lt;p style=&quot;margin-top: 0pt; margin-bottom: 0pt; direction: ltr; unicode-bidi: embed; vertical-align: baseline;&quot;&gt;&lt;span style=&quot;font-size: 20pt; font-family: 微软雅黑; font-weight: bold;&quot;&gt;大规模网格下并行算法&lt;/span&gt;&lt;/p&gt;" style="rounded=0;whiteSpace=wrap;html=1;fillColor=#d5e8d4;strokeColor=#82b366;" parent="1" vertex="1">
          <mxGeometry x="500" y="330" width="120" height="160" as="geometry" />
        </mxCell>
        <mxCell id="yXLgln3FG9nKV5-Q6QMO-39" value="" style="edgeStyle=orthogonalEdgeStyle;rounded=0;orthogonalLoop=1;jettySize=auto;html=1;fontSize=25;exitX=0.5;exitY=1;exitDx=0;exitDy=0;entryX=0.5;entryY=0;entryDx=0;entryDy=0;" parent="1" source="yXLgln3FG9nKV5-Q6QMO-3" target="yXLgln3FG9nKV5-Q6QMO-14" edge="1">
          <mxGeometry relative="1" as="geometry">
            <mxPoint x="790" y="320" as="targetPoint" />
          </mxGeometry>
        </mxCell>
        <mxCell id="yXLgln3FG9nKV5-Q6QMO-50" value="" style="edgeStyle=orthogonalEdgeStyle;rounded=0;orthogonalLoop=1;jettySize=auto;html=1;fontSize=25;" parent="1" source="yXLgln3FG9nKV5-Q6QMO-14" target="yXLgln3FG9nKV5-Q6QMO-31" edge="1">
          <mxGeometry relative="1" as="geometry">
            <Array as="points">
              <mxPoint x="725" y="500" />
              <mxPoint x="830" y="500" />
            </Array>
          </mxGeometry>
        </mxCell>
        <mxCell id="yXLgln3FG9nKV5-Q6QMO-14" value="&lt;p style=&quot;margin-top: 0pt; margin-bottom: 0pt; direction: ltr; unicode-bidi: embed; vertical-align: baseline;&quot;&gt;&lt;span style=&quot;font-size: 20pt; font-family: 微软雅黑; font-weight: bold;&quot;&gt;二&lt;/span&gt;&lt;span style=&quot;font-size: 20pt; font-family: 微软雅黑; font-weight: bold;&quot;&gt;维解析模型程序研制&lt;/span&gt;&lt;/p&gt;" style="rounded=0;whiteSpace=wrap;html=1;fillColor=#d5e8d4;strokeColor=#82b366;" parent="1" vertex="1">
          <mxGeometry x="665" y="330" width="120" height="160" as="geometry" />
        </mxCell>
        <mxCell id="yXLgln3FG9nKV5-Q6QMO-51" value="" style="edgeStyle=orthogonalEdgeStyle;rounded=0;orthogonalLoop=1;jettySize=auto;html=1;fontSize=25;entryX=0.5;entryY=0;entryDx=0;entryDy=0;" parent="1" source="yXLgln3FG9nKV5-Q6QMO-15" target="yXLgln3FG9nKV5-Q6QMO-31" edge="1">
          <mxGeometry relative="1" as="geometry">
            <Array as="points">
              <mxPoint x="930" y="500" />
              <mxPoint x="830" y="500" />
            </Array>
          </mxGeometry>
        </mxCell>
        <mxCell id="yXLgln3FG9nKV5-Q6QMO-15" value="&lt;p style=&quot;margin-top: 0pt; margin-bottom: 0pt; direction: ltr; unicode-bidi: embed; vertical-align: baseline;&quot;&gt;&lt;span style=&quot;font-size: 20pt; font-family: 微软雅黑; font-weight: bold;&quot;&gt;大规模网格下并行算法&lt;/span&gt;&lt;/p&gt;" style="rounded=0;whiteSpace=wrap;html=1;fillColor=#d5e8d4;strokeColor=#82b366;" parent="1" vertex="1">
          <mxGeometry x="870" y="330" width="120" height="160" as="geometry" />
        </mxCell>
        <mxCell id="yXLgln3FG9nKV5-Q6QMO-52" value="" style="edgeStyle=orthogonalEdgeStyle;rounded=0;orthogonalLoop=1;jettySize=auto;html=1;fontSize=25;entryX=0.5;entryY=0;entryDx=0;entryDy=0;" parent="1" source="yXLgln3FG9nKV5-Q6QMO-16" target="yXLgln3FG9nKV5-Q6QMO-31" edge="1">
          <mxGeometry relative="1" as="geometry">
            <mxPoint x="1010" y="500" as="targetPoint" />
            <Array as="points">
              <mxPoint x="1130" y="500" />
              <mxPoint x="830" y="500" />
            </Array>
          </mxGeometry>
        </mxCell>
        <mxCell id="yXLgln3FG9nKV5-Q6QMO-16" value="&lt;p style=&quot;margin-top: 0pt; margin-bottom: 0pt; direction: ltr; unicode-bidi: embed; vertical-align: baseline;&quot;&gt;&lt;span style=&quot;font-size: 20pt; font-family: 微软雅黑; font-weight: bold;&quot;&gt;三维有限元模型程序研制&lt;/span&gt;&lt;/p&gt;" style="rounded=0;whiteSpace=wrap;html=1;fillColor=#d5e8d4;strokeColor=#82b366;" parent="1" vertex="1">
          <mxGeometry x="1070" y="330" width="120" height="160" as="geometry" />
        </mxCell>
        <mxCell id="yXLgln3FG9nKV5-Q6QMO-53" value="" style="edgeStyle=orthogonalEdgeStyle;rounded=0;orthogonalLoop=1;jettySize=auto;html=1;fontSize=25;entryX=0.5;entryY=0;entryDx=0;entryDy=0;" parent="1" source="yXLgln3FG9nKV5-Q6QMO-17" target="yXLgln3FG9nKV5-Q6QMO-31" edge="1">
          <mxGeometry relative="1" as="geometry">
            <mxPoint x="1030" y="490" as="targetPoint" />
            <Array as="points">
              <mxPoint x="1350" y="500" />
              <mxPoint x="830" y="500" />
            </Array>
          </mxGeometry>
        </mxCell>
        <mxCell id="yXLgln3FG9nKV5-Q6QMO-17" value="&lt;p style=&quot;margin-top: 0pt; margin-bottom: 0pt; direction: ltr; unicode-bidi: embed; vertical-align: baseline;&quot;&gt;&lt;span style=&quot;font-size: 20pt; font-family: 微软雅黑; font-weight: bold;&quot;&gt;大规模网格下并行算法&lt;/span&gt;&lt;/p&gt;" style="rounded=0;whiteSpace=wrap;html=1;fillColor=#d5e8d4;strokeColor=#82b366;" parent="1" vertex="1">
          <mxGeometry x="1290" y="330" width="120" height="160" as="geometry" />
        </mxCell>
        <mxCell id="yXLgln3FG9nKV5-Q6QMO-18" value="&lt;p style=&quot;margin-top: 0pt; margin-bottom: 0pt; direction: ltr; unicode-bidi: embed; vertical-align: baseline;&quot;&gt;&lt;span style=&quot;font-size: 20pt; font-family: 微软雅黑; font-weight: bold;&quot;&gt;一维解析模型程序计算精度&lt;/span&gt;&lt;/p&gt;" style="ellipse;shape=doubleEllipse;whiteSpace=wrap;html=1;aspect=fixed;fillColor=#fff2cc;strokeColor=#d6b656;" parent="1" vertex="1">
          <mxGeometry x="270" y="569.5" width="165" height="165" as="geometry" />
        </mxCell>
        <mxCell id="yXLgln3FG9nKV5-Q6QMO-23" value="&lt;p style=&quot;margin-top: 0pt; margin-bottom: 0pt; direction: ltr; unicode-bidi: embed; vertical-align: baseline;&quot;&gt;&lt;span style=&quot;font-size: 20pt; font-family: 微软雅黑; font-weight: bold;&quot;&gt;一维解析模型并行算法计算效率&lt;/span&gt;&lt;/p&gt;" style="ellipse;shape=doubleEllipse;whiteSpace=wrap;html=1;aspect=fixed;fillColor=#fff2cc;strokeColor=#d6b656;" parent="1" vertex="1">
          <mxGeometry x="470" y="569.5" width="165" height="165" as="geometry" />
        </mxCell>
        <mxCell id="yXLgln3FG9nKV5-Q6QMO-24" value="&lt;p style=&quot;margin-top: 0pt; margin-bottom: 0pt; direction: ltr; unicode-bidi: embed; vertical-align: baseline;&quot;&gt;&lt;span style=&quot;font-size: 20pt; font-family: 微软雅黑; font-weight: bold;&quot;&gt;二维解析模型程序计算精度&lt;/span&gt;&lt;/p&gt;" style="ellipse;shape=doubleEllipse;whiteSpace=wrap;html=1;aspect=fixed;fillColor=#fff2cc;strokeColor=#d6b656;" parent="1" vertex="1">
          <mxGeometry x="650" y="569.5" width="165" height="165" as="geometry" />
        </mxCell>
        <mxCell id="yXLgln3FG9nKV5-Q6QMO-25" value="&lt;p style=&quot;margin-top: 0pt; margin-bottom: 0pt; direction: ltr; unicode-bidi: embed; vertical-align: baseline;&quot;&gt;&lt;span style=&quot;font-size: 20pt; font-family: 微软雅黑; font-weight: bold;&quot;&gt;二维解析模型并行算法计算效率&lt;/span&gt;&lt;/p&gt;" style="ellipse;shape=doubleEllipse;whiteSpace=wrap;html=1;aspect=fixed;fillColor=#fff2cc;strokeColor=#d6b656;" parent="1" vertex="1">
          <mxGeometry x="847.5" y="569.5" width="165" height="165" as="geometry" />
        </mxCell>
        <mxCell id="yXLgln3FG9nKV5-Q6QMO-26" value="&lt;p style=&quot;margin-top: 0pt; margin-bottom: 0pt; direction: ltr; unicode-bidi: embed; vertical-align: baseline;&quot;&gt;&lt;span style=&quot;font-size: 20pt; font-family: 微软雅黑; font-weight: bold;&quot;&gt;三&lt;/span&gt;&lt;span style=&quot;font-size: 20pt; font-family: 微软雅黑; font-weight: bold;&quot;&gt;维有限元模型程序计算精度&lt;/span&gt;&lt;/p&gt;" style="ellipse;shape=doubleEllipse;whiteSpace=wrap;html=1;aspect=fixed;fillColor=#fff2cc;strokeColor=#d6b656;" parent="1" vertex="1">
          <mxGeometry x="1047.5" y="569.5" width="165" height="165" as="geometry" />
        </mxCell>
        <mxCell id="yXLgln3FG9nKV5-Q6QMO-27" value="&lt;p style=&quot;margin-top: 0pt; margin-bottom: 0pt; direction: ltr; unicode-bidi: embed; vertical-align: baseline;&quot;&gt;&lt;span style=&quot;font-size: 20pt; font-family: 微软雅黑; font-weight: bold;&quot;&gt;三&lt;/span&gt;&lt;span style=&quot;font-size: 20pt; font-family: 微软雅黑; font-weight: bold;&quot;&gt;维有限元模型并行算法计算效率&lt;/span&gt;&lt;/p&gt;" style="ellipse;shape=doubleEllipse;whiteSpace=wrap;html=1;aspect=fixed;fillColor=#fff2cc;strokeColor=#d6b656;" parent="1" vertex="1">
          <mxGeometry x="1267.5" y="569.5" width="165" height="165" as="geometry" />
        </mxCell>
        <mxCell id="yXLgln3FG9nKV5-Q6QMO-29" value="" style="edgeStyle=orthogonalEdgeStyle;rounded=0;orthogonalLoop=1;jettySize=auto;html=1;entryX=0.5;entryY=0;entryDx=0;entryDy=0;exitX=0.5;exitY=1;exitDx=0;exitDy=0;" parent="1" source="yXLgln3FG9nKV5-Q6QMO-2" target="yXLgln3FG9nKV5-Q6QMO-13" edge="1">
          <mxGeometry relative="1" as="geometry">
            <mxPoint x="192.4999999999999" y="260" as="sourcePoint" />
            <mxPoint x="162.4999999999999" y="349.9999999999999" as="targetPoint" />
          </mxGeometry>
        </mxCell>
        <mxCell id="yXLgln3FG9nKV5-Q6QMO-33" value="&lt;font style=&quot;font-size: 25px;&quot;&gt;数值测试&lt;/font&gt;" style="text;html=1;strokeColor=none;fillColor=none;align=center;verticalAlign=middle;whiteSpace=wrap;rounded=0;dashed=1;fillStyle=dashed;" parent="1" vertex="1">
          <mxGeometry x="1480" y="577" width="30" height="150" as="geometry" />
        </mxCell>
        <mxCell id="yXLgln3FG9nKV5-Q6QMO-34" value="依照数值试验结果，对程序的计算精度和计算效率进行分析" style="rounded=1;whiteSpace=wrap;html=1;dashed=1;fillStyle=auto;fontSize=25;fillColor=#e1d5e7;strokeColor=#9673a6;" parent="1" vertex="1">
          <mxGeometry x="405" y="830" width="850" height="60" as="geometry" />
        </mxCell>
        <mxCell id="yXLgln3FG9nKV5-Q6QMO-40" value="" style="edgeStyle=orthogonalEdgeStyle;rounded=0;orthogonalLoop=1;jettySize=auto;html=1;fontSize=25;exitX=0.5;exitY=1;exitDx=0;exitDy=0;entryX=0.5;entryY=0;entryDx=0;entryDy=0;" parent="1" source="yXLgln3FG9nKV5-Q6QMO-3" target="yXLgln3FG9nKV5-Q6QMO-15" edge="1">
          <mxGeometry relative="1" as="geometry">
            <mxPoint x="840" y="270" as="sourcePoint" />
            <mxPoint x="735" y="340" as="targetPoint" />
          </mxGeometry>
        </mxCell>
        <mxCell id="yXLgln3FG9nKV5-Q6QMO-41" value="" style="edgeStyle=orthogonalEdgeStyle;rounded=0;orthogonalLoop=1;jettySize=auto;html=1;fontSize=25;exitX=0.5;exitY=1;exitDx=0;exitDy=0;entryX=0.5;entryY=0;entryDx=0;entryDy=0;" parent="1" source="yXLgln3FG9nKV5-Q6QMO-4" target="yXLgln3FG9nKV5-Q6QMO-16" edge="1">
          <mxGeometry relative="1" as="geometry">
            <mxPoint x="840" y="270" as="sourcePoint" />
            <mxPoint x="940" y="340" as="targetPoint" />
          </mxGeometry>
        </mxCell>
        <mxCell id="yXLgln3FG9nKV5-Q6QMO-42" value="" style="edgeStyle=orthogonalEdgeStyle;rounded=0;orthogonalLoop=1;jettySize=auto;html=1;fontSize=25;exitX=0.5;exitY=1;exitDx=0;exitDy=0;entryX=0.5;entryY=0;entryDx=0;entryDy=0;" parent="1" source="yXLgln3FG9nKV5-Q6QMO-4" target="yXLgln3FG9nKV5-Q6QMO-17" edge="1">
          <mxGeometry relative="1" as="geometry">
            <mxPoint x="1225" y="270" as="sourcePoint" />
            <mxPoint x="1140" y="340" as="targetPoint" />
          </mxGeometry>
        </mxCell>
      </root>
    </mxGraphModel>
  </diagram>
</mxfile>
